<svg xmlns="http://www.w3.org/2000/svg" viewBox="0 0 3000 3000"><defs><style>.cls-1,.cls-2,.cls-5{fill:#e98d00;}.cls-2{font-size:191.39px;}.cls-2,.cls-5{font-family:FuturaBT-LightItalic, Futura Lt BT;font-style:italic;}.cls-3{letter-spacing:-0.04em;}.cls-4{fill:none;stroke:#e98d00;stroke-linecap:round;stroke-linejoin:round;stroke-width:22.3px;}.cls-5{font-size:87.35px;}</style></defs><title>loaded alternate</title><g id="Layer_3" data-name="Layer 3"><path class="cls-1" d="M552.75,1061.86c-2.61,8.6-5,17.82-7.82,26.4a56,56,0,0,1-16.67,24.94c-3,1.31-4.62,2.31-5,3a203.76,203.76,0,0,0-24.2,15.93c-16.28,12.32-31.93,25.93-47.1,39.51s-30.34,28.28-46.06,40.84c-15.94,12.72-50.73,43.33-73.32,27.15-5.87-11.24-5.63-24.4-6-36.71q-.25-39.65-.5-79.31-1.75-46.27-3.5-92.55c-.8-14.22-1.83-28.54-3-42.63s-2.47-28.32-2.49-42.52c0-7.19.45-14.43,1-21.39,1.21-15.54,5.65-30.85,11-45.36,6-16.24,14-33,24.22-47,7.28-10,15.11-19.62,24.05-27.62,9.1-8.14,22-19,34.85-16.91,15.22,2.52,19.19,21.39,21.65,35.17,1.05,20.4.55,41,.53,61.36,0,23.44-1.29,46.95-2.39,70.38-1.13,24.24-2.48,48.65-2.39,72.78,0,11.05.23,22.23,1.06,33.32,1.41-.77,4.5-.86,6.37-1.67,29.09-12.59,66.37-58.73,99-88.68,3.7-2.61,6.12-4.09,7.23-4.47q4.45-1.89,6.14.54c8.48,11,9.26,25,9.51,37.88C559.28,1023,555.55,1042.83,552.75,1061.86Zm-30.58-67.3c-28.1,25.58-57.08,50.17-85.13,75.81l-1.59.11c-8.81,19.35-16.82,38.93-24.29,58.85l-2.1,1.2c2.31-16.12,8.95-31.65,14.73-46.74-10.83,13.43-18.65,29.46-26.75,44.59-1.74,3.53-3.12,5.15-4.16,4.87a409.5,409.5,0,0,1,28.8-57.27l-2.11-7.22c-.83-33.59.42-67.77,1.58-100.94.55-15.57,1.78-31.56,2.64-47.22s1.74-31.44,1.58-46.93c-.22-21.71-.33-48.35-13.17-67.43l-7.86-4c-10.2.68-19.18,8-26,14-8.57,7.61-15.5,16.86-22.54,26.76-17.43,25.48-28.44,56.14-28.26,87.14.17,30,2,60.23,4,90.27s4,60.17,4,90.29l.5,88.31,2,19.05c.54,13.43,15.56,12.38,24.35,8.75,19.2-7.94,38.29-22.17,54.46-35.79,16.55-13.94,32.65-29.35,49-43.7,15.84-13.89,32.23-27.73,50.15-39.15-4.78-12.05-6.28-25.44-6.05-38.18C510.5,1044.3,515.22,1019.58,522.17,994.57ZM399.13,760c-4.55,9.84-9.22,20.65-13,31.28a19.35,19.35,0,0,1-7.23,8.3c-3.27,2-5.84,4.1-7.21,6.55a5.91,5.91,0,0,1-5.13,2.31l1-.94c0-4.4-2.1-7.49-6.14-9.32-5.42-2.46-8.49-4.05-9.17-4.61-1-1.84.67-6.65,5.09-14.38q6.61-8,13.3-8.71,2.56-7.14,4.63-7.82l1,.26q6.69-15.66,11.36-12l.52,5.54c3.11-4,6.05-6.16,8.83-6.61C401.55,749,402.42,752.85,399.13,760Zm-4.69-.68c-.35-.09-1.74.73-4.16,2.48q-3.64,5-9.83,22.6l-1.55.2q-.52-3.72,1.55-12.5c1.37-5.83,2.07-9.56,2.07-11.16L378.39,770l-2.06,8.47c-.69,3.43-2.06,5.87-4.12,7.35-2.4-5.4-5.65-6.43-9.73-3,.34,2.49,2.13,4.53,5.37,6.13s5,3.88,5.39,6.76A36.76,36.76,0,0,1,382,789C384.91,778.61,389.89,769,394.44,759.28ZM546,982.49a1.94,1.94,0,0,0-1.67-2.14c-1.11-.22-1.67-.73-1.67-1.54q-.56-3.21-4.45-.48c-6.27,9.89-10.7,21.81-13.31,32.25a217.36,217.36,0,0,0-6.08,54.18c.24,12.09.77,25.85,9.4,35.85q2.21.22,7.21-8.12c8.78-24.34,14.92-49.34,14.48-74.9C549.75,1006,549.08,994,546,982.49Zm-16.13,34.73c1.22,3.43-.55,12.39-2.77,22.37-1.48,1.86-2.4,2.41-2.77,1.68a6.56,6.56,0,0,1-.55-2.9q0-6.59,2.77-20.58C528.06,1016.35,529.6,1016.33,529.92,1017.22Zm4.16,37.85c.56,4,1.45,8.35,1.94,12.43.61,5-.93,10.46-3.89,15.35-3,1.71-5,1.36-6.09-1.06-3.71-8.19-2-20.4,1.66-28.19C531.39,1050.58,533.52,1051.07,534.08,1055.07Zm-4.16,25.75q4.43-10.94,0-24Q526,1075.79,529.92,1080.82Zm14.45-70.17q3.35,7.88-1.11,27.18-3.34,4.73-5,4.71c-8.37-7.8-4-22.09-2.78-32.24,0-.8,2.22-2.77,6.68-5.88Zm-4.46-10.09c0,3.21-1.42,4.81-3.89,4.54-1.79-.2-2-3.36-.56-9.21q0-1.8,3.89-5.74Q543.24,989.83,539.91,1000.56Zm2.78,47.25a34.45,34.45,0,0,1-1.67,11.37c-1.49,1-3,.69-4.45-1.08a44.23,44.23,0,0,1,1.67-9.57A5.91,5.91,0,0,1,542.7,1047.82Zm-3.34-38.46c-1.48,9.1-4.29,20.34-1.11,29.58C540.35,1030.57,545.16,1017.74,539.36,1009.35Z"/><path class="cls-1" d="M1030.44,718.91c-16.92,59.66-53,112.8-100.46,152.71-41.79,35.12-87,68.51-136.79,91.13-16.8,7.64-34.45,14.91-52.1,19.24-27.82,6.83-58.29,8.82-86.07,0-24.25-7.66-45-23.9-59.43-43.41-16.56-22.33-23.39-54.81-23.77-83.46-.67-50.68,13.32-101.44,32.31-148.48,20.93-51.84,51.12-101.4,89.1-142.26,29.27-31.5,63.2-60.85,101.76-79.51,24.82-12,60.22-23.49,80.34,3.88a67.2,67.2,0,0,1,12.3,37.16,60.15,60.15,0,0,1-6.77,27.25c-18,41.44-60.48,68.55-97.31,91.25a168.89,168.89,0,0,0-35.32,32.15c-25.12,27.15-38.74,66.4-37.94,100.6.23,9.91.93,23.11,8.26,31.62v2.4c24.21,29.5,65.84,15.5,94,2.33,24.91-11.66,45.48-31.6,61.9-52.89,15.06-19.54,28.75-43.08,28.63-69-.1-21.09-10.86-41.59-20.33-60-6.46-7.57-15.5-12.44-23.92-17.38a6.79,6.79,0,0,1-2.45-5.59q0-4.8,6.73-17.16c20-37.4,53.39-67.32,85.24-94.46,11.23-6.15,22.59-12.11,33.72-18.43q8.76-2.81,15.67-1.35c39.49,31.25,49.73,83.36,49.78,130C1047.54,644.7,1040.75,682.55,1030.44,718.91ZM999,501.5c-30.66,43-70,78-112.56,108.92,19,23.39,29.48,46.7,30.24,76.13a139,139,0,0,1-1.24,20.26c-7,23.39-19.89,44.36-34.54,63-14.9,18.94-32.74,36.23-54.4,48.39a196.28,196.28,0,0,1-18.79,9.54c-19.94,8.65-41.81,15.63-64.21,14.46-30.87-.66-45.93-24.71-46.13-53.21a184.09,184.09,0,0,1,43.75-120.78c15.87-18.86,37.25-32.87,57.53-46.34,20.73-13.76,42-28.62,58-47.77,11-13.18,18.09-30.48,18.08-47.84a67.21,67.21,0,0,0-.61-8.76,52.78,52.78,0,0,0-23.88-25.64c-11.28-5.94-24.51-6.3-36.5-2.23-3.24,1.45-8.06,3-13.91,5.09-4.76,1.66-12.28,5.64-22.28,11.6-43.22,30.32-81.18,66.63-112.36,109.27-34.65,47.39-55.05,104.39-71.87,160.13C587,799.3,582.5,823.1,582.56,846.87c.06,26.66,4.22,55,20.44,78l-1.14,1.32,1.14-.72c21.9,28,53.64,45.23,89.65,44.84v1.8a317.09,317.09,0,0,0,31.83.38c3.94-1.25,9.67-2.22,17.21-2.83,17.07-5.24,34.15-10.77,50.3-18.38C866.71,916.09,939.79,864.85,982,797.24c32.21-51.55,54.91-116.73,54.08-180.75C1035.61,577,1030.28,530.07,999,501.5ZM695,970.25l-.59.92-1.17,0v-.6Zm290.17-477c-.42-1-5-.81-11.27,1.24-32.64,15.17-58.63,41.46-82,68.19C883,574.2,872,587.2,870.43,602.35c1.23.71,4.49.39,9.82-.92,31.56-16.28,57.51-40.06,81.15-66.22C971,523.85,989,502.09,985.17,493.23Zm-53-7.9c-6,13.47-24.11,20-37.12,23.94-2.06-.41-3.39-2.49-4-6.26s-3.07-4.56-5.85-4.33c-1.35.11-2.06-1.19-1.23-3.12a19,19,0,0,0,2.77-5.88,32,32,0,0,0,.31-4.92q0-6-4.61-14.39T877.8,456.6a26.2,26.2,0,0,1,2.46-10,21.56,21.56,0,0,1,7.38-4.69q8.61-3.35,15.1,1.7T908,457.56c9.89-6.1,16.77-8,19.81-7.27,3.59.87,5.59,4.6,4.34,12.24a106.89,106.89,0,0,1-6.82,10.85C931.93,475.8,934.22,479.8,932.15,485.34Zm-13.64,71.53c-1.74,11.9-12.44,20.7-20.4,28.63-1.65,1.44-6.16,4.33-9.24,4.16-1.77-.1-3.08-3.6-1.85-7.68,7.62-11.27,15.4-21.76,29-26Zm4.34-91q2.47-5.69,0-6c-10.49,2.87-16.64,15.23-20.41,24.37q-1.85,3.71-3.09,1.17a56.58,56.58,0,0,0,1.23-23.87c-1-6.53-4.73-10.2-9.25-9.66l-1.85,5.52c2.39,10.65,6,22.36,3.7,33.37,4.52,3.06,6.92,8.84,7.4,9.17.63.43,8.13-2,13-4.87,5.12-3,8.7-8.56,8-10.76-.16-.53-1.66-1-3.72-1a21.2,21.2,0,0,0-5,3,22,22,0,0,1-4.33,2.81c-.83.31-1.65-.18-2.47-1.47C912.81,478.91,916.15,474.56,922.85,465.89Zm-9.29,95.81c-9.44,3.36-16.12,12.57-22.22,19.81-1.23,1.68-.83,2.72,1.23,3.12A62.64,62.64,0,0,0,913.56,561.69ZM934,533.27Q925.94,545.75,914.8,551q-4.34-.79-.62-6.37,9.89-13.85,19.84-15Zm20.53-5.94q1.24,3.78-2.8,9.06a114.3,114.3,0,0,1-8.41,9.8c-7.06,6.06-11.81,9.37-14.29,9.85q-5,0-1.24-7.35C933.57,538.84,942.53,528.74,954.55,527.33ZM950.19,533c-9,3.26-16.79,9.74-19.9,19Q939.6,548.08,950.19,533Zm22.47-28.54C971,508.23,967,512.73,960.78,518c-3.34,2.72-6.46,4-8.11,3.35-1.14-.47-1.46-2.5-.62-5.19q7.48-10.35,14.35-12.64C968.9,502.71,971,503,972.65,504.48Z"/><path class="cls-1" d="M1505,720.72c-1.86,16.57-18.58,31-35.18,37.28-8.82,4.19-20.48,6.35-30,6.65-16.25.5-33.94-3.39-47.52-13.17-14.4-10.37-21.68-26.65-27.31-42.86-17.31,1.29-34.77,2.22-51.94,3.55-26.11,2-52.35,6.72-78.28,11.47-2.6,12.67-5.21,27.28-9.67,37.53-6.07,13.94-25.43,25.33-41.19,31.18-15.35,5.7-33.78,10.53-49.35,12.42-9.45,1.15-20.42,1.32-30.63,1.61-8.71.2-22.07-1.32-27.35-5.83-3.77-3.22-5.08-9.49-3.81-13.42,12.24-39.41,24.87-78.71,38.8-117.56q17.17-50.06,34.5-100.08c9.07-27.76,17-56.11,25.63-83.81s18.38-55.26,32.13-80.94c17.33-33.59,48.58-59.56,85.88-63.1,21-2,42.18.56,60.32,13.59,5.46,3.86,8.19,5.8,13.64,9.7,11.56,12.38,19,28.93,26.66,43.78q14.67,42.13,29.28,84.29c9.51,26,19.63,51.79,32.56,76.33,3.91.72,9.33,2.6,16.28,5.7,9.46,15.76,6.5,37.89,5.21,55.14,7,14.37,14.81,29.09,20.85,43.11C1500.85,687.83,1506.72,705.51,1505,720.72ZM1208.4,767.55c.42-3.67,0-5.6-1.29-5.78-23.59-11.44-53.34-7.55-76.33-1.77-8.66,2.18-18,5.81-26.8,9.16-8.24,3.16-17.67,9.71-22.9,17l5.08,4.12c-1.27-.08-2.76-.1-4.45-.08,3.39,3.94,9.31,6.25,17.81,7,21.37-.32,42.51-2,63.26-7.38C1178.77,785.67,1196.41,779.43,1208.4,767.55ZM1442.48,572q-18.38-45.35-37.76-90.28c-6.56-18.07-13.25-36.16-20.17-54s-14.46-35.16-25.35-51c-14.7-17.78-38-25.6-59.06-25.47-3.53,0-7.79-.3-11.66.18-24.7,3.1-46.48,20.54-60.75,37.36-21.4,25.22-33.24,64-44.41,97.71q-15.77,48.69-31.43,97.41c-10.56,30.8-21.94,61.51-33.24,91.86s-22.73,61.36-30.57,93.11c8.91-5.19,18.17-9.76,27.38-14.38a144.15,144.15,0,0,1,19.8-5.65c26-5.22,52.58-5.93,78.3,3.46,9-35.31,18.31-70.59,29-105.43q21.24-66.56,42.67-133.06c3.63-9.57,5.44-14.35,9.07-23.9l1.29-.15q1.94,1,1.94,8.77a57.58,57.58,0,0,0,16.2-20.41c-.44-2,.65-4.27,3.24-6.94a10,10,0,0,1,1.95,5.8c0,2-3.24,8.93-9.73,20.84a61.17,61.17,0,0,0,19.46-14.62,5.94,5.94,0,0,1,2.6.35c.86,1.52-.58,4.26-1.95,7.39a35.56,35.56,0,0,1-11.68,13.78c-4.71,3.38-9.73,7.44-14.91,11.22,8.46,21.89,17.89,43.41,27.24,64.93C1367.54,579.63,1405,575.14,1442.48,572ZM1126.95,778.85c-5.21,8.52-17.79,10.66-26.78,11.63-3.82-.28-7.39-1.33-8.27-2.78-1.19-1.95.63-6,4.45-8.89,8.56-4.3,22.23-9.19,30.61-1.75Zm-5.11.55c-3.41-.82-10-.52-19.77,1q-4.46,4.08-5.09,3.63Q1109.06,789.52,1121.84,779.4Zm24.93.54c.85,2.22-1.19,5.12-5.12,6.49-5.41,1.89-10,1-10.87-1.23a7.44,7.44,0,0,1,4.47-5.18A16.14,16.14,0,0,1,1146.77,779.94Zm9.61-15.2a6.1,6.1,0,0,1-4.48,6.33c-7.56,2.47-14.51,3.3-16.64,1.74s-.22-6.46,4.48-8.17C1146.45,762.2,1153.38,763,1156.37,764.75Zm14.11,15.17c0,1.6-1.67,3.46-4.49,4.49-5.32,1.93-10.26,1.08-12.82-1.6a9.72,9.72,0,0,1,5.77-5.38C1161.85,776.46,1166.2,777.56,1170.48,779.92Zm28.91-15.6c1.29,1.78-.22,4-4.5,6.81-9.66,4.18-22.15,5.51-30.18-2.67,0-1.2,3.2-4,9.62-8.49C1187.17,757.89,1195.53,759.41,1199.39,764.32Zm-5.15,1.52q-12.87-6.07-23.77-.33c1.28,2.15,4.19,3,7.7,3.31A33.4,33.4,0,0,0,1194.25,765.85Zm243-182.32c-55,4-110.38,10.12-165.62,10a1218.59,1218.59,0,0,0-34.24,117.7q65.23-9.17,130.89-13.66,20.8-2.06,41.63-3.74c-1.67-10.3-3.49-20.72-1.3-31.14C1413.42,635.46,1419.6,605.73,1437.27,583.52Zm-118.33-2.18q-12.51-28.05-25.28-56-9.08,28.12-18.13,56.26C1289.91,583.26,1304.55,582.15,1318.94,581.35ZM1490,729.06a49.86,49.86,0,0,0,2.61-16.2c-.1-11.58-4.32-23.18-9.12-33.58s-10.11-21.6-13-32.89c-4.64,10.64-9.18,21.36-13.68,32-4.75,11.26-12.31,21.63-22.79,28.22-18.87.62-37.75,1-56.62,1.7q2.59,8.82,11.06,24.48c11.81,19.38,36.45,21,56.63,21.48C1463.51,754.76,1480.55,744.67,1490,729.06Zm-76.2-37.22v0Zm53.4-83.81c0-4.78-1-10.58-1.63-16.18s-3.16-9.55-7.49-11.87q-4.56.69-11.72,8.07c-14.75,19.38-25,42.6-28,66.38-1.86,14.72-3.17,30.81,5.21,44.18q6.5.34,11.72-5.83t9.77-12.3C1456.06,657.41,1467.28,631.71,1467.23,608Zm11.07,170.88c.87,6.8-1.27,10.61-5.86,10.85a43.3,43.3,0,0,1-8.47-1.08q-2,4.84-4.23,10a11,11,0,0,1-7.49,6.46c-3,.81-5.44-1.07-7.16-5.82v-.6c-9.12,7.45-14.76,11.27-16.93,11.35a11.07,11.07,0,0,1-4.88-1.31q-2.92-1.38-4.88-9.7a46.39,46.39,0,0,1,19.53-31.34,13.58,13.58,0,0,1,7.16,2.19A7.24,7.24,0,0,0,1449,771c1.73,0,4.23-1,7.49-2.87s5.75-2.81,7.49-2.84a7.53,7.53,0,0,1,5.86,2.92Zm-39.73-115q3.25,14.3-7.81,24.86-4.56,1.37-7.81-3.9-3.91-12.44,4.56-24.18a6.38,6.38,0,0,1,6.51-1.43A5.7,5.7,0,0,1,1438.57,663.88ZM1434,664l-1.3,0q-7.17,8.06-5.86,20Q1436,674.74,1434,664Zm16.28-42.48c1.38,11.61-1.93,23.82-11.72,30.93-3.48,1.71-6.43-.39-7.81-5.74-2.76-10.63,2.76-22.21,11.07-29.76C1447,616.83,1449.85,618.37,1450.29,621.56ZM1471.14,779q-3.27-5.36-7.82-7.09c-9.56,5-18,6.18-25.4,3.61q-9.77,14.12-7.16,22.44,4.55-2,9.44-9t7.49-8.91q0,4.81,3.26,14.32c1.73-1.64,3.29-4.31,3.26-6.67a80.62,80.62,0,0,1,0-10.8q3.25-.07,7.16,3.46c2.6,2.35,5.92,3.66,7.82,2.88A3.72,3.72,0,0,0,1471.14,779Zm-26.71-145.27q1.3-9.63,0-12.6c-4.32,7.74-10.08,16.59-8.47,26.06Q1439.22,644.06,1444.43,633.71Zm6.51-38.57-.65,7.22a7.89,7.89,0,0,1-5.21,5.54,7,7,0,0,1-3.26-2.91c-1.56-3.86,1.52-10.25,5.86-12.76C1449,592.19,1450.07,593.16,1450.94,595.14Zm2,57q0,7.8-4.56,10.31-2,.65-5.21-5.26,0-3.6,3.26-9.69C1450.72,648.15,1452.9,649.69,1452.9,652.09Zm10.42-50.6c.21,9.79-1.53,16.22-5.86,18.71-.88-1.58-3.62-3.59-4.56-5.3-1.7-3.09.65-10.82,4.56-16.9C1461.36,598.32,1463.28,599.53,1463.32,601.49Z"/><path class="cls-1" d="M1902.83,619.88c-.66,63.55-24.41,127.32-77.2,158.66-42,24.91-100.15,46.14-153.49,40.76-27.62-2.78-54.9-14.26-72.09-36.89a56.2,56.2,0,0,1-6.5-26.81c.16-19.3,7.92-35.43,19.51-49.69,14.36-17.67,40.24-24.44,62-29.69,21-5.06,46.15-12.15,61.79-26.78,15.46-14.46,22.67-36.24,23.23-57,.38-14.41-3.33-28.6-7.74-42.64-8.41-26.6-26.33-50.33-53-60.33l-1.29-2-2.59,3.28c-9.28,53.71-6.21,109.77-3.89,163.92-4,8.4-15.08,14.75-24,15.87-10.44,1.8-21.26,2-31.8,2.32a270.1,270.1,0,0,1-30.54-.58c-23.92-2-47.66-6.75-69-18.9-6.51-3.37-9.77-8.64-9.77-15.84l2-6c2.61-23.08,3.39-46.31,3.91-69.51v-87c0-12.8.32-25.64,1.3-38.37,3.09-39.89,15.41-85.15,59.89-95.79,4.77-2.5,11.68-3.69,20.16-4,11.46-.47,19.2-1.74,21.44-1.88,42.7-2.75,98.22,20,137.81,52.55q23.61,19.18,46.9,38.74C1876.82,474.48,1903.58,547.36,1902.83,619.88Zm-223.55,30.42c-7.12-7.52-17.45-13-26.59-16-15.91-5.27-34.25-8.37-52-9.64-21.4-1.52-44.58.91-63.13,12.64-.44,1.59,2.17,4.85,7.81,9.84,20.81,9.84,44.17,13.88,66.37,15.49,19.07,1.38,39.21,1,58.44-3.13q3.24-1.45,7.13-3.41T1679.27,650.31Zm-86.37,75.87q-3.9,2.77-4.55,15.33a34.36,34.36,0,0,0-9.11,3.09c-10,4.27-18,6.33-24.08,6.1a25.35,25.35,0,0,1-11.07-3.39q-5.85-3.18-3.26-9.7c3.47-6.69,9.33-10.31,17.58-10.78q-9.12-13-7.16-18.27c.86-1.56,4.56-1.84,11.07-.76q-2.61-18.11-.65-21c2.17-2.31,4.38-3.67,6.51-3.91,5.89-.66,11.28,2.56,15.62,9.2q2.59,8.55,8.46,25.09Q1598.75,721.73,1592.9,726.17Zm284.48-33.36a214.89,214.89,0,0,0,13.37-74.16c.15-46.25-12.56-90.62-35.69-132q-1.29-.29-5.11-7.73c-27.84-35.15-59.86-67.42-98.25-90.58-28.27-17.06-59-32.73-91.23-38.26-23.55-4-49.74-5.21-72.12,6.22-14.08,7.18-26.2,21.22-31.89,34.44-10.63,24.69-11.55,56.81-11.72,85.38-.08,13.6.52,27.42,1,41.13.45,13.51,1,27.12,1,40.53-.09,21-1,42.58-5.21,63.43,7-1.47,10.55-2.18,17.58-3.58,0-.8.21-1.19.65-1.17.86,1.24,2.86,1.46,5.86.85a76.51,76.51,0,0,1,11.06-1.27c12.73-.58,25.39-1,37.72,0,22,1.69,44.49,6.83,64.26,18.61a560.3,560.3,0,0,1-3.89-61.64c0-37.35,3.78-76.11,16.2-112.13q2.58-3.88,5.18-8.67c1.72-3.18,5.74-5.16,7.77-4.12a12.55,12.55,0,0,1,1.94,3.25q-6.48,8.76-8.41,23.53c8.55-4.46,12.82-6.66,21.35-11a6.93,6.93,0,0,1,.65,3.09c0,2-1.08,3.85-3.23,5.56-3.88,3.47-6,5.19-6.47,5.13,12.18,8.87,24.1,18.3,34.25,29.49,18.79,23,28.55,52.5,28.36,82a137.05,137.05,0,0,1-6.44,41.51c-6.69,20.47-22.9,33.75-40.65,43.53-19,10.46-41.39,14.44-62.81,17.51-14.64,2.1-29.11,11.21-38,22.32-9.3,11.64-17.31,26.24-17.22,40.71,0,4.06,2.38,10.57,5.85,18.42,0,2,1.08,4.28,3.25,6.84,3.46,3.86,5.2,6,5.2,6.4,14.58,11.73,33.54,17.92,51.93,19.89,26.91,2.89,53.05-2.08,78.9-9.22C1803.45,775.79,1854.92,746.24,1877.38,692.81Zm-291,27.58q-2.61-8.54-5.86-17.12a18.17,18.17,0,0,0-11.71-11.39q-3.27,4.05.65,12a41.58,41.58,0,0,0,5.53,7.17c2.82,3.14,4.44,5.54,4.88,7.15q-.66,4.17-3.25,4c-1.3-.07-3.37-1-6.18-2.71s-4.88-2.63-6.18-2.68c0,2.8,2.06,5.18,6.18,7.18a50.35,50.35,0,0,1,6.83,3.64c-1.3,3.53-4.62,5.43-9.76,5.52-7.72.14-12.37.48-13.67,1.23-.88,2.37,0,4,2.6,4.9,3.91,1.76,10,1.4,18.23-1,3.47-1,5.86-4,7.16-8.93S1584.66,721.49,1586.4,720.39Zm13.66-74.16c-1.3,3.92-4.23,5.92-8.78,6a115.22,115.22,0,0,1-13.34-.15,36.68,36.68,0,0,1-9.76-2.28c-3-1.17-6.08-2.67-7.81-5.14-.88-2,.86-4.17,5.21-6.38C1577.69,635.2,1590.95,637.14,1600.06,646.22Zm-5.2,2.07c-7.08-5.68-19.34-8-28-5.11,8.67,4.4,16.27,5.81,22.78,4.19C1592.68,648,1594.42,648.26,1594.85,648.29Zm9.76-13.16c-5.64,2.82-14.31,1.85-26-2.77.43-1.57,3.68-2.61,9.76-3.06,3.9.47,5.85.71,9.76,1.2C1602,630.75,1604.17,632.3,1604.61,635.13Zm46.13,6.19c.86,2.09-1.52,4-7.14,5.93-11.06,1.22-28,1.5-35.74-8.29-.44-2.82.54-4.46,2.93-4.89a64.53,64.53,0,0,0,6.83-1.6C1628.55,632.32,1642.82,632.46,1650.74,641.31ZM1628,657.89c-.87,1.53-6.84,2.64-14.95,1.24-3.59-.62-5.42-2.79-4.55-5.13,4.77-3.66,11.27-3.58,19.5.29Zm17.54-14.66c-7.49-9-21.76-7.68-31.83-5.05C1623.13,644,1634.83,644.63,1645.54,643.22Zm25.3,6.75c.43,3.25-1.52,5-5.84,5.38-.44,0-4.33-.66-11.68-1.78a5.3,5.3,0,0,1-.65-2.46,4,4,0,0,1,.65-1.74Q1663.07,644.33,1670.85,650Z"/><path class="cls-1" d="M1966.69,630.94a16.69,16.69,0,0,0-.63,4.61,30,30,0,0,0,1.89,8.66c1.26,3.78,1.89,6.47,1.89,8.07,0,2.8-1.68,4.89-5,6.3-11.15,4.48-26.9,8.66-36,4.16-1.55-.77-2.63-4.1-3.17-8.06a6.75,6.75,0,0,1,2.22-6.3c1.89-1.68,3.9-3.44,6-5.25q-7-3.72-2.53-10.3c1.27-.45,1.9-1.07,1.9-1.88s-1.06-2-3.16-3.57-3.16-3-3.16-4.16c-5.48-7.49-6.87-14.34-3.8-18.43s9.5-4.23,17.08-.12C1951.25,610.67,1961.3,619.37,1966.69,630.94Zm-4.41,16.69q-5.67-9.46-2.52-15.74c-6.46-8-14.53-16.88-24.62-20.22v4.2c2.53,5.5,7.37,10.65,14.53,15.49a14.2,14.2,0,0,0,4.42,1.87,6.62,6.62,0,0,1,4.41,3.68c-.42,2.68-2.52,3.36-6.31,2.07s-6.31-1.5-7.57-.66c1.68,1.67,4.83,3.17,9.47,4.51a10.63,10.63,0,0,1,6.3,4.24c-4.63-.55-11.14.15-19.56,2.18-2.11,2.21-3,4.32-2.53,4.69C1942,657.07,1954.3,654.08,1962.28,647.63Zm312.37-76.47c5.35,19.23,7.13,39.07-3.54,57.51-9.09,15.7-27.38,21.81-44.51,15.55a191.55,191.55,0,0,1-18.55-7.83c-19.77-9.56-38.29-22.38-56.78-34.28q-7.3-3.75-12.79-1.87t-6.1,23.83l1.83,1.37c22,8.61,44.41,16.28,66.64,24.32a51.9,51.9,0,0,1,5.41,5.57c14,21.57,19.33,47.6,19.16,72.9-.07,10.65.5,22.45-.6,32.11a93.32,93.32,0,0,1-6.58,25.58q-6,13.28-18,15.37-32.18-13.86-64.82-26.52-3.66,3.27-1.83,8.83,0,4.21,5.19,7.88c3.45,2.46,5.38,4,5.79,4.56,32.68,15.05,66.31,30.48,101.68,38.06,8.59,8,14.35,18.51,17.77,29.62a195.34,195.34,0,0,1,6.49,31,220.43,220.43,0,0,1,1.18,29.43c-.3,19.31-1.54,41.7-13,58.55-3.95,3.14-7.73,3.73-11.26,2-20.35-10.07-42.17-18.86-63.46-27.19s-43.26-16.2-64.45-24.94c-29.12-12-57.93-25.51-84.61-42.68a100.47,100.47,0,0,1-30-29.54c-7.37-11-12.6-24-13.78-37.11-.7-7.74-1.27-16-1.25-24.39,0-12.52.84-25.08,1.57-37.61s1.48-25.08,1.57-37.6a217.81,217.81,0,0,0-1.88-30.59c-11.11-15-19.64-33.92-19.47-52.8.05-5.55.69-11.26,2.52-16,2.49-6.52,7.54-12.3,13.82-16.74-3.08-42.31-9.44-89.66-1.26-128.79,4.93-23.57,25.88-46.12,53.11-42.44,52.77,7.12,110.63,26.72,160.34,51.26C2234.83,504.56,2264.43,534.4,2274.65,571.16ZM2181,654.93c-3.38-.82-5.07-1.23-8.46-2-36.23-13.25-74-27.83-109.63-36.86a178.15,178.15,0,0,0-37.29-5.35c-11.57-.39-23.53,2.78-31.89,11.14-5.86,3.75-8.78,10.65-8.78,20.64,0,7.6,2.69,16.8,5.65,26.37,5.37,17.38,20.75,34,34.4,44.83,16.4,13.07,38.53,22.32,58.93,30.21,15.59,6,32,11.17,47.88,16.73,16.27,5.69,32.66,11.68,48,19.75a122.32,122.32,0,0,1-7.25-21.89c-3-14.13-3.84-31.2-3.63-46.63C2169.12,692.77,2170.47,671.92,2181,654.93Zm80.7-88.86a93.38,93.38,0,0,0-36.85-48.74c-35.13-23.37-72.5-42-112.63-53.95-17.06-5.07-34.71-10.11-52.41-13.48-15.38-2.59-34.22-.71-45.42,8.82C1997.79,472.81,1995.67,500,1995,522c3.34,25.12,4.32,52.92,6.26,78.8,18.62-5.4,39.61-3,57.32,1,19.95,4.49,41.13,11.25,61.61,17.17,0-10,.75-16.82,1.84-20.25,2.18-6.89,6.34-11.14,12.23-12.33,4.76-1,10.57-.34,17.06,2.47,4.46,1.93,11.76,6.51,21.84,13.84a198.81,198.81,0,0,0,23.53,15c3.54,1.85,7.27,4.14,10.81,5.72,16,7.15,36.25,13.3,51.85.13,5.52-5.11,8.18-13.75,8.27-25.65C2267.66,587,2264.86,576.58,2261.67,566.08Zm-32.08,398.23c-8-22.23-12.55-44.48-12.55-67.37,0-18.53,2.42-38.12,9-56.21-18.71-6.45-38.15-12.74-55.93-20.92-8.66-4-17.73-7.82-26.11-12.63-8.29-4.61-17-12.5-22-20.61,0-2.79-1.43-6.59-4.29-11.35a4.24,4.24,0,0,0,1.84.15v-6c-19.65-8-39.61-15.21-59.14-23.44-19.23-8.83-38.47-18.6-54.17-33.08,1.1,15.22-.19,30.86-1.25,45.79-1,14.52-2,29.82-1.88,44.39.09,11-.33,23.85,2.5,33.21,3,10,11.77,22.06,18.74,30.22,11,12.83,29.64,23.14,46,31.91,16.38,7.86,32.87,15.5,49.24,23.4Q2175.31,941.2,2229.59,964.31ZM2209.25,679c-2.64-5.83-4-8.74-6.6-14.55a6.59,6.59,0,0,0-2.4-2.34l-7.82,4.13c-10.42,16.88-12.37,37.71-12.67,56.56A193.45,193.45,0,0,0,2187,777.1q4.82,9.42,6.63,10.28,1.81,3.25,3.61,2.29l3.61-1.9c12.72-16.34,15-39.08,15-58.22C2215.85,712.79,2213,695.9,2209.25,679Zm-8.41,27.2c2.51,10.74,6.65,23.94-1.2,33.63-2.41,2.07-5.22,1.15-8.43-2.75a41.94,41.94,0,0,1-6-29.79c1.59-8.35,5.82-12.31,10.24-10.24Q2198.44,698.43,2200.85,706.17Zm-5.41,28.05c6.42-10.14,2.9-20.72-.6-30.88q-5.42,5.27-4.21,21.43c.4,1.79.81,3.78,1.2,6S2193.42,734.09,2195.44,734.23Zm9,18.66q5.4,18.77-4.81,22.32c-3.61-.9-6.93-4.8-7.82-10.27-1.92-11.72,1.41-19.76,6.62-19.7C2199.65,745.41,2201.65,747.95,2204.45,752.88Zm-3-74.63c2,6.3.6,12.28-1.8,13.55-2.41-.33-5.52-3.92-6.62-9.11-.9-4.27,1-8.13,4.21-9.43C2198.44,673.45,2200.53,675.42,2201.45,678.26Zm-1.8,73.55q-7.22,5.6-2.41,16.27Q2202.65,766.43,2199.65,751.81Zm10.21-32.94c-.4.61-1.2.62-2.4.05q-5.4-8-2.4-19.15l1.8-.34Q2211,704.44,2209.85,718.86ZM2259.3,875c-1.81-11.18-5.6-22.58-13-31.34q-1.78-.91-4.75,1.18-1.2,0-7.74,9.9.59,3.3-1.79,4.51c-5.23,26.26-4.89,51-1.19,77.41q2.38,9,5.07,18.73a38.82,38.82,0,0,0,9.22,16.67q5.35.34,7.72-5c8.17-15.64,9.8-32.94,10.06-50A242.39,242.39,0,0,0,2259.3,875Zm-19,35.84q1.78,11.7-3.57,12c-2-.6-4-3.4-5.36-8.08-1.3-4.4-.4-8.2,2.38-10.81,1.19-.6,2.76-.1,4.17,1.49A8.6,8.6,0,0,1,2240.31,910.88Zm9.51-34.75c2,8.08,4.18,23.47-5.94,27.56q-5.35-1.51-7.73-9.91c-1-8.55-6-26.72,3-33.3l3,2.1v-1.8A96.73,96.73,0,0,1,2249.82,876.13Zm-7.72-8.74h-1.19c-3.9,10.1-1.65,20.22.6,30.3C2251.39,890.6,2244.93,876.14,2242.1,867.39ZM2254,945.47c-.19,6.8-2.18,10.87-5.34,11.65q-3.56-.62-6.53-8.13-4.77-17.41,1.19-23.4c3.57.22,5.54.64,5.94,1.23C2252.39,933.25,2254.14,939.64,2254,945.47Zm-6.52-14.16q-5.34,10.47-.59,19.5Q2252.2,945.14,2247.45,931.31Zm10.08-20c1.36,7.17.59,12.51-1.78,15.28-2.37,0-4.64-3.23-5.93-9.06-1.39-6.3-.4-11,2.37-13.18C2255,905.38,2256.86,907.79,2257.52,911.32Zm-.59-24.91a2.86,2.86,0,0,1-3-1.54q-4.15-6.94-1.78-11.72c2.37,0,3.83,2,4.74,5.46C2257.91,882.31,2258.12,885,2256.93,886.41Zm75-249.49c-.78,3.95-2.52,5.72-5.21,5.35a48.28,48.28,0,0,0-14-7.45q1.16,5.47-1.75,6.8c-1.95.9-4.37.59-7-1-8-4.7-13.79-13.59-19.33-20.9a28.39,28.39,0,0,1-5.88-15.19Q2281.71,599,2280,583c7.65-5.12,18.31-9.07,27-4.31a27.08,27.08,0,0,1,7.58,6.11c2.78,3.37,3.29,10.09,1.75,18.4q-1.17,1.73-3.49,4.6c3.49,4.39,7.69,8.76,11,13A43.54,43.54,0,0,1,2331.9,636.92Zm-12.18-7.7a57.44,57.44,0,0,0-27.43-23.88c-1.17-3,0-4.5,3.51-4.36s5.65.05,6.44-.31c4.28-.39,6.45-3.7,5.25-7.84a12.57,12.57,0,0,0-5.25-7.16c-2.34-1.31-6.82-.22-13.47,3.33q1.76,8.77-1.17,20.36,7,13.46,15.81,19.57l-2.92-5.84a41.21,41.21,0,0,1-7.61-11.43c0-.39,2,.08,5.86,1.45C2303.79,618.34,2310.8,623.68,2319.72,629.22Z"/><path class="cls-1" d="M2664.89,1054.5c-.46,44.54-11.78,113.46-61.28,118.12-40.45,3.81-90.14-12.15-126.72-39a197.21,197.21,0,0,1-61.66-74.08c-3.51-9.14-6.09-20.69-5.63-30.16.73-14.91,3.73-30.31,16.85-39.63,14.78-10.5,37.21-2.73,52.91,2.31,14.54,4.66,37.16,13.26,51.73,5.23,15.93-8.78,18.76-28.76,19.18-44.91.4-15.41-2.93-31.21-6.37-46.67-7.46-31.89-21-64-44.08-87.81l-1.09-2.63-2.17,1.94c-8.59,53-5.14,108.56-3.27,161.91-3.63,6-10.35,7.15-20.24,3.48-9.34-4-18.24-9.09-27.07-14.1s-17.76-10.57-26.25-16.33c-22.42-15.21-43-33.31-60.17-54.42q-8.61-10.09-8.62-20.86l1.73-5c2.37-22.42,3-45,3.45-67.5q0-43.5,0-87c.12-12.61.32-25.26,1.15-37.7,2-29.4,10.74-78.77,52.34-65,4.13,0,10,2.27,17.41,6.35,9.78,5.39,16.59,8.27,18.41,9.18,44,22.13,85.77,75.34,115.42,123.92q19.31,31.45,38.12,63.2C2640.91,889.15,2665.74,972.09,2664.89,1054.5Zm-182-86.19c-5.93-11.07-14.25-21.28-22.54-29.74a275.57,275.57,0,0,0-44.59-36.44c-15.09-9.87-35.48-22.77-55.09-19.86-.39,1.37,1.91,6,6.87,13.86,17.16,19,37,35.52,57.75,49.66,15.38,10.46,32,20.62,49.91,27,1.83.15,3.85.24,6,.27S2484,971.53,2482.92,968.31ZM2409,999.61q-3.38.76-3.95,13a23.68,23.68,0,0,0-7.91-1.6c-8.69-.87-15.71-2.94-21-6.3a43.43,43.43,0,0,1-9.71-9.09q-5.14-6.2-2.86-11.38c3.05-4.91,8.21-5.51,15.43-1.74-5.32-11.78-7.42-19.08-6.28-22,.76-1.12,4,.51,9.69,4.93q-2.28-19.45-.57-21.36a5.76,5.76,0,0,1,5.69-.56c5.23,2.41,9.83,8.37,13.6,17.24,2.27,9.86,4.82,19.65,7.34,29.45Q2414.11,998.18,2409,999.61ZM2644.88,1114c8.85-21.1,10.3-44.83,10.54-67.12.55-51.14-11.41-102.11-28.25-150.77-.68-.64-2-4.1-4.07-10.42-22.15-49.68-47.7-98.09-79.73-141.85-22.5-30.73-47-61.74-76.36-85.51-16.75-13.57-38.73-31-61.91-31-12,0-23.3,8.38-27.8,18-10.34,22.19-10.12,53.06-10.28,79.35-.08,13.76.46,27.76.86,41.63.39,13.68.91,27.44.86,41-.08,20.13-.63,40.8-4.58,60.75,6.19,2.15,9.27,3.25,15.42,5.47,0-.8.19-1.08.57-.84.76,1.68,2.53,2.94,5.12,3.87a74.7,74.7,0,0,1,9.65,4.43,361.48,361.48,0,0,1,32.66,19.4,235.39,235.39,0,0,1,54.8,51.79c-1.88-21.22-3.3-42.59-3.29-63.65,0-34.32,2-70.67,13.66-103.75a52.15,52.15,0,0,0,4.35-6c1.44-2.29,4.67-2.3,6.52-.1a22.27,22.27,0,0,1,1.63,4.26q-5.42,5.41-7.05,19.17c7.17,0,10.75,0,17.86.06a11,11,0,0,1,.54,3.42,3.69,3.69,0,0,1-2.7,3.88c-3.24,1.46-5,2.06-5.4,1.78,10.15,15.33,20.2,30.8,28.48,47.25,14.24,30.11,24.18,63.82,23.35,96.74a163.47,163.47,0,0,1-5.28,38.16c-3.93,15.26-19,22.27-33.6,22.41-18.53.19-36.41-7.86-52.78-15-10.34-4.51-23.08-4.57-32.42,2.71-9.71,7.57-14.93,20.64-14.82,31.83,0,4.35,2.05,11.8,5,21.43,0,2,.93,4.83,2.8,8.52,3,5.65,4.47,8.69,4.47,9.08a182.72,182.72,0,0,0,44.27,46.7,195.17,195.17,0,0,0,65.9,31.67C2583,1157.6,2627.34,1155.88,2644.88,1114ZM2403.4,990.47q-2.26-9.89-5.09-20.14a37.82,37.82,0,0,0-10.2-17.42q-2.85,2.37.57,12.37a88.36,88.36,0,0,0,4.82,10c2.45,4.59,3.87,7.82,4.25,9.67-.38,2.55-1.33,3.33-2.83,2.35-1.13-.74-2.93-2.71-5.39-5.89s-4.26-5.14-5.4-5.87c0,2.8,1.8,6.24,5.4,10.37s5.57,6.52,6,7.16c-1.13,2.86-4,3-8.51.5-6.79-3.86-10.82-5.88-12-5.81-.77,1.92,0,4,2.28,6.24,3.42,3.77,8.74,6.54,15.92,8.4,3,.76,5.1-1,6.23-5.24S2401.89,990.67,2403.4,990.47Zm11.83-67.13c-1.12,3.25-3.66,3.75-7.6,1.53s-8-4.53-11.59-7a57.71,57.71,0,0,1-8.51-7.31c-2.66-2.75-5.31-5.8-6.83-9.16-.77-2.48.76-3.72,4.55-3.7C2398.29,901.88,2408.61,911.54,2415.23,923.34Zm-4.5-.61c-6.72-8.06-13.59-16.7-24.33-19.52q11.36,13.3,19.82,15.92Q2410.16,922.35,2410.73,922.73Zm8.44-8.14c-9.48-2.44-15.67-9.57-22.56-16.17.37-1.35,3.21-.71,8.48,2,3.39,2.48,5.08,3.72,8.45,6.23C2416.92,908.87,2418.79,911.55,2419.17,914.59Zm39.56,30c.73,2.53-1.29,3.26-6.09,2.24-11.93-5.78-24.79-14.42-30.66-26.72-.38-3,.47-4.18,2.52-3.38a51.67,51.67,0,0,0,5.88,1.92C2441.34,925.07,2452.81,932.93,2458.73,944.57Zm-19.42,4.84c-.75,1.08-6-1-12.85-6.47-3.32-2.64-4.68-5.58-3.92-7.47,4.11-1.2,9.71,2.22,16.77,10.34Zm15-5.62c-5.22-11-16-17.89-27.28-21.47A71.16,71.16,0,0,0,2454.3,943.8Zm21.5,19.82c.36,3.47-1.28,4.25-4.94,2.36-.37-.27-3.66-2.9-9.92-7.81a8.63,8.63,0,0,1-.55-2.8,2.6,2.6,0,0,1,.55-1.4Q2469.22,954,2475.8,963.62Z"/><text class="cls-2" transform="translate(939.72 2585.95)"><tspan class="cls-3">P</tspan><tspan x="89.81" y="0">rovisions Co.</tspan></text><g id="Layer_10" data-name="Layer 10"><path class="cls-4" d="M1232.7,1542.37h9.62a78.17,78.17,0,0,1,78.17,78.17V1829.4a83,83,0,0,1-83,83h0a83,83,0,0,1-83-83V1620.55a78.17,78.17,0,0,1,78.17-78.17Z" transform="translate(-508.66 516.52) rotate(-19.64)"/><path class="cls-4" d="M1390.28,1487h9.62a78.17,78.17,0,0,1,78.17,78.17v208.86a83,83,0,0,1-83,83h0a83,83,0,0,1-83-83V1565.21A78.17,78.17,0,0,1,1390.28,1487Z" transform="translate(-480.88 566.27) rotate(-19.64)"/><path class="cls-4" d="M1009,2264.58v70.19c0,29.63,0,39.27,63.9,39.27H1540.4c49.61,0,58.56-30.08,58.56-56.15,0-28.84,8.52-50.66,36-50.66,73.52,0,86.3-47.44,86.3-93.73,0-89.91,126-88.11,230.92-87a96.7,96.7,0,0,0,97.66-98.37h0c-.65-37.86-9.49-65.54-66.86-65.54H1724.75c-89.78,0-125.5-27.87-125.5-107V1110.61a101.66,101.66,0,0,0-101.66-101.66h0a101.66,101.66,0,0,0-101.66,101.66v387.6"/><line class="cls-4" x1="1634.98" y1="2267.23" x2="1528.34" y2="2267.23"/><path class="cls-4" d="M1195.72,2266.88H1033.78l2.65.35c-73.52,0-86.3-47.44-86.3-93.73V1674.63c0-21.6,6.86-51.15,31.65-60l37.26-13.3A78.75,78.75,0,0,1,1119.67,1649l71.44,200.15a78.75,78.75,0,0,1-47.69,100.64h0a74.53,74.53,0,0,1-95.25-45.14L1009,1795"/></g><g id="Layer_11" data-name="Layer 11"><text class="cls-5" transform="translate(1306.34 2712.33)">est. MMXX</text></g></g></svg>