{
  "asset": {
    "version": "2.0",
    "generator": "THREE.GLTFExporter"
  },
  "scenes": [
    {
      "nodes": [
        7
      ],
      "name": "AuxScene"
    }
  ],
  "scene": 0,
  "nodes": [
    {
      "rotation": [
        0.038441251265883936,
        -0.6423065580393544,
        -0.04573139278033897,
        0.7641159567860897
      ],
      "translation": [
        -106.38235871751111,
        69.0309334879068,
        -417.69677913357793
      ],
      "scale": [
        1,
        1,
        0.9999999999999997
      ],
      "name": "CINEMA_4D_Editor",
      "camera": 0
    },
    {
      "rotation": [
        0.7071067811865476,
        -4.6792401508424456e-24,
        -4.679240175594162e-24,
        0.7071067811865475
      ],
      "translation": [
        15.31416658325296,
        7.771372194767374,
        -39.8970738479401
      ],
      "scale": [
        1.0000000000000002,
        1,
        1.0000000000000002
      ],
      "name": "Object05",
      "mesh": 0
    },
    {
      "rotation": [
        0.7071067811865476,
        -4.6792401508424456e-24,
        -4.679240175594162e-24,
        0.7071067811865475
      ],
      "translation": [
        43.09126235652625,
        -6.821602617982862,
        42.67049331794771
      ],
      "scale": [
        1.0000000000000002,
        1,
        1.0000000000000002
      ],
      "name": "Cylinder",
      "mesh": 1
    },
    {
      "rotation": [
        5.400636803133567e-9,
        -0.8243076770410345,
        1.4659447658119867e-8,
        0.5661420694869483
      ],
      "translation": [
        -16.567268300581173,
        -5.2623862334638085,
        34.96565138189298
      ],
      "scale": [
        0.9999998807907102,
        0.99999988079071,
        0.9999999999999997
      ],
      "name": "Object02",
      "mesh": 2
    },
    {
      "rotation": [
        0,
        5.176158600099415e-33,
        0,
        1
      ],
      "translation": [
        -31.95381063537497,
        -6.520633344173068,
        24.950870096755636
      ],
      "name": "bottom_shell",
      "mesh": 3
    },
    {
      "rotation": [
        4.780954106072692e-12,
        -0.8216547964868472,
        2.456592803593434e-8,
        0.5699854020832892
      ],
      "translation": [
        -31.953810635374968,
        -6.520633344173068,
        24.95087009675563
      ],
      "scale": [
        0.9999998807907102,
        0.9999999403953543,
        0.9999999403953553
      ],
      "name": "top_shell",
      "mesh": 4
    },
    {
      "rotation": [
        -3.090861992809049e-8,
        -0.7071067811865468,
        -0.707106781186547,
        3.090862001468608e-8
      ],
      "scale": [
        0.9999999999999999,
        1,
        1
      ],
      "name": "Null",
      "children": [
        1,
        2,
        3,
        4,
        5
      ]
    },
    {
      "children": [
        0,
        6
      ]
    }
  ],
  "cameras": [
    {
      "type": "perspective",
      "perspective": {
        "aspectRatio": 1.3333333333333333,
        "yfov": 0.5244106856856026,
        "zfar": 10,
        "znear": 0.000001
      },
      "name": "PerspectiveCamera"
    }
  ],
  "bufferViews": [
    {
      "buffer": 0,
      "byteOffset": 0,
      "byteLength": 8820,
      "target": 34962,
      "byteStride": 12
    },
    {
      "buffer": 0,
      "byteOffset": 8820,
      "byteLength": 8820,
      "target": 34962,
      "byteStride": 12
    },
    {
      "buffer": 0,
      "byteOffset": 17640,
      "byteLength": 5880,
      "target": 34962,
      "byteStride": 8
    },
    {
      "buffer": 0,
      "byteOffset": 23520,
      "byteLength": 1472,
      "target": 34963
    },
    {
      "buffer": 0,
      "byteOffset": 24992,
      "byteLength": 5184,
      "target": 34962,
      "byteStride": 12
    },
    {
      "buffer": 0,
      "byteOffset": 30176,
      "byteLength": 5184,
      "target": 34962,
      "byteStride": 12
    },
    {
      "buffer": 0,
      "byteOffset": 35360,
      "byteLength": 3456,
      "target": 34962,
      "byteStride": 8
    },
    {
      "buffer": 0,
      "byteOffset": 38816,
      "byteLength": 864,
      "target": 34963
    },
    {
      "buffer": 0,
      "byteOffset": 39680,
      "byteLength": 1872,
      "target": 34962,
      "byteStride": 12
    },
    {
      "buffer": 0,
      "byteOffset": 41552,
      "byteLength": 1872,
      "target": 34962,
      "byteStride": 12
    },
    {
      "buffer": 0,
      "byteOffset": 43424,
      "byteLength": 1248,
      "target": 34962,
      "byteStride": 8
    },
    {
      "buffer": 0,
      "byteOffset": 44672,
      "byteLength": 312,
      "target": 34963
    },
    {
      "buffer": 0,
      "byteOffset": 44984,
      "byteLength": 6336,
      "target": 34962,
      "byteStride": 12
    },
    {
      "buffer": 0,
      "byteOffset": 51320,
      "byteLength": 6336,
      "target": 34962,
      "byteStride": 12
    },
    {
      "buffer": 0,
      "byteOffset": 57656,
      "byteLength": 4224,
      "target": 34962,
      "byteStride": 8
    },
    {
      "buffer": 0,
      "byteOffset": 61880,
      "byteLength": 1056,
      "target": 34963
    },
    {
      "buffer": 0,
      "byteOffset": 62936,
      "byteLength": 21312,
      "target": 34962,
      "byteStride": 12
    },
    {
      "buffer": 0,
      "byteOffset": 84248,
      "byteLength": 21312,
      "target": 34962,
      "byteStride": 12
    },
    {
      "buffer": 0,
      "byteOffset": 105560,
      "byteLength": 14208,
      "target": 34962,
      "byteStride": 8
    },
    {
      "buffer": 0,
      "byteOffset": 119768,
      "byteLength": 3552,
      "target": 34963
    },
    {
      "buffer": 0,
      "byteOffset": 123320,
      "byteLength": 248
    },
    {
      "buffer": 0,
      "byteOffset": 123568,
      "byteLength": 992
    },
    {
      "buffer": 0,
      "byteOffset": 124560,
      "byteLength": 248
    },
    {
      "buffer": 0,
      "byteOffset": 124808,
      "byteLength": 992
    }
  ],
  "buffers": [
    {
      "byteLength": 125800,
      "uri": "data:application/octet-stream;base64,"
    }
  ],
  "accessors": [
    {
      "bufferView": 0,
      "componentType": 5126,
      "count": 735,
      "max": [
        45.77447509765625,
        106.1856689453125,
        26.597843170166016
      ],
      "min": [
        -45.77447509765625,
        -21.708539962768555,
        1.986204743385315
      ],
      "type": "VEC3"
    },
    {
      "bufferView": 1,
      "componentType": 5126,
      "count": 735,
      "max": [
        1,
        1,
        1
      ],
      "min": [
        -1,
        -1,
        -1
      ],
      "type": "VEC3"
    },
    {
      "bufferView": 2,
      "componentType": 5126,
      "count": 735,
      "max": [
        1,
        1
      ],
      "min": [
        0,
        0.8325595855712891
      ],
      "type": "VEC2"
    },
    {
      "bufferView": 3,
      "componentType": 5123,
      "count": 735,
      "max": [
        734
      ],
      "min": [
        0
      ],
      "type": "SCALAR"
    },
    {
      "bufferView": 4,
      "componentType": 5126,
      "count": 432,
      "max": [
        13.524499893188477,
        13.524499893188477,
        4.805500030517578
      ],
      "min": [
        -13.524499893188477,
        -13.524499893188477,
        -4.805500030517578
      ],
      "type": "VEC3"
    },
    {
      "bufferView": 5,
      "componentType": 5126,
      "count": 432,
      "max": [
        1,
        1,
        1
      ],
      "min": [
        -1,
        -1,
        -1
      ],
      "type": "VEC3"
    },
    {
      "bufferView": 6,
      "componentType": 5126,
      "count": 432,
      "max": [
        1,
        1
      ],
      "min": [
        0,
        0.9849669933319092
      ],
      "type": "VEC2"
    },
    {
      "bufferView": 7,
      "componentType": 5123,
      "count": 432,
      "max": [
        431
      ],
      "min": [
        0
      ],
      "type": "SCALAR"
    },
    {
      "bufferView": 8,
      "componentType": 5126,
      "count": 156,
      "max": [
        24.75389862060547,
        3.2293615341186523,
        27.52336311340332
      ],
      "min": [
        -5.27488899230957,
        -5.510648250579834,
        -4.717638969421387
      ],
      "type": "VEC3"
    },
    {
      "bufferView": 9,
      "componentType": 5126,
      "count": 156,
      "max": [
        0.9501282572746277,
        0.9994000196456909,
        0.9436174035072327
      ],
      "min": [
        -0.9593139290809631,
        -0.9994000196456909,
        -0.9583909511566162
      ],
      "type": "VEC3"
    },
    {
      "bufferView": 10,
      "componentType": 5126,
      "count": 156,
      "max": [
        0.5822925567626953,
        0.9975780844688416
      ],
      "min": [
        0.18817107379436493,
        0.8144962787628174
      ],
      "type": "VEC2"
    },
    {
      "bufferView": 11,
      "componentType": 5123,
      "count": 156,
      "max": [
        155
      ],
      "min": [
        0
      ],
      "type": "SCALAR"
    },
    {
      "bufferView": 12,
      "componentType": 5126,
      "count": 528,
      "max": [
        95.02865600585938,
        14.292017936706543,
        3.4433279037475586
      ],
      "min": [
        -2.203392267227173,
        -14.292033195495605,
        -88.4495620727539
      ],
      "type": "VEC3"
    },
    {
      "bufferView": 13,
      "componentType": 5126,
      "count": 528,
      "max": [
        1,
        1,
        1
      ],
      "min": [
        -1,
        -1,
        -1
      ],
      "type": "VEC3"
    },
    {
      "bufferView": 14,
      "componentType": 5126,
      "count": 528,
      "max": [
        0.9977652430534363,
        0.998508095741272
      ],
      "min": [
        0.0011338051408529282,
        0.003911733627319336
      ],
      "type": "VEC2"
    },
    {
      "bufferView": 15,
      "componentType": 5123,
      "count": 528,
      "max": [
        527
      ],
      "min": [
        0
      ],
      "type": "SCALAR"
    },
    {
      "bufferView": 16,
      "componentType": 5126,
      "count": 1776,
      "max": [
        95.02865600585938,
        14.29201602935791,
        57.728824615478516
      ],
      "min": [
        -0.4926879405975342,
        -14.292033195495605,
        0.7176451683044434
      ],
      "type": "VEC3"
    },
    {
      "bufferView": 17,
      "componentType": 5126,
      "count": 1776,
      "max": [
        1,
        1,
        1
      ],
      "min": [
        -1,
        -1,
        -1
      ],
      "type": "VEC3"
    },
    {
      "bufferView": 18,
      "componentType": 5126,
      "count": 1776,
      "max": [
        0.9959195256233215,
        0.8532061576843262
      ],
      "min": [
        -0.0007118944777175784,
        0.4856393337249756
      ],
      "type": "VEC2"
    },
    {
      "bufferView": 19,
      "componentType": 5123,
      "count": 1776,
      "max": [
        1775
      ],
      "min": [
        0
      ],
      "type": "SCALAR"
    },
    {
      "bufferView": 20,
      "componentType": 5126,
      "count": 62,
      "max": [
        3
      ],
      "min": [
        0
      ],
      "type": "SCALAR"
    },
    {
      "bufferView": 21,
      "componentType": 5126,
      "count": 62,
      "max": [
        7.712834815265524e-9,
        -0.3420201539993286,
        1.8340948315653804e-8,
        0.9396926164627075
      ],
      "min": [
        -2.968444379192192e-9,
        -0.9063078165054321,
        1.4002710990723699e-8,
        0.4226182699203491
      ],
      "type": "VEC4"
    },
    {
      "bufferView": 22,
      "componentType": 5126,
      "count": 62,
      "max": [
        3
      ],
      "min": [
        0
      ],
      "type": "SCALAR"
    },
    {
      "bufferView": 23,
      "componentType": 5126,
      "count": 62,
      "max": [
        2.1224393076391124e-10,
        2.6912624308389195e-16,
        3.85836500527148e-8,
        1
      ],
      "min": [
        -3.767851097791208e-8,
        -0.9396926164627075,
        5.2722475274435965e-9,
        0.3420201539993286
      ],
      "type": "VEC4"
    }
  ],
  "materials": [
    {
      "pbrMetallicRoughness": {
        "baseColorFactor": [
          0.91,
          0.18199999999999997,
          0.27906666666666696,
          1
        ],
        "metallicFactor": 0.5,
        "roughnessFactor": 0.5
      },
      "name": "Glossy Black"
    }
  ],
  "meshes": [
    {
      "primitives": [
        {
          "mode": 4,
          "attributes": {
            "POSITION": 0,
            "NORMAL": 1,
            "TEXCOORD_0": 2
          },
          "indices": 3,
          "material": 0
        }
      ]
    },
    {
      "primitives": [
        {
          "mode": 4,
          "attributes": {
            "POSITION": 4,
            "NORMAL": 5,
            "TEXCOORD_0": 6
          },
          "indices": 7,
          "material": 0
        }
      ]
    },
    {
      "primitives": [
        {
          "mode": 4,
          "attributes": {
            "POSITION": 8,
            "NORMAL": 9,
            "TEXCOORD_0": 10
          },
          "indices": 11,
          "material": 0
        }
      ]
    },
    {
      "primitives": [
        {
          "mode": 4,
          "attributes": {
            "POSITION": 12,
            "NORMAL": 13,
            "TEXCOORD_0": 14
          },
          "indices": 15,
          "material": 0
        }
      ]
    },
    {
      "primitives": [
        {
          "mode": 4,
          "attributes": {
            "POSITION": 16,
            "NORMAL": 17,
            "TEXCOORD_0": 18
          },
          "indices": 19,
          "material": 0
        }
      ]
    }
  ],
  "animations": [
    {
      "name": "Main",
      "samplers": [
        {
          "input": 20,
          "output": 21,
          "interpolation": "LINEAR"
        },
        {
          "input": 22,
          "output": 23,
          "interpolation": "LINEAR"
        }
      ],
      "channels": [
        {
          "sampler": 0,
          "target": {
            "node": 3,
            "path": "rotation"
          }
        },
        {
          "sampler": 1,
          "target": {
            "node": 5,
            "path": "rotation"
          }
        }
      ]
    }
  ]
}