<?xml version="1.0" standalone="no"?>
<!DOCTYPE svg PUBLIC "-//W3C//DTD SVG 20010904//EN"
 "http://www.w3.org/TR/2001/REC-SVG-20010904/DTD/svg10.dtd">
<svg version="1.0" xmlns="http://www.w3.org/2000/svg"
 width="1041.000000pt" height="1041.000000pt" viewBox="0 0 1041.000000 1041.000000"
 preserveAspectRatio="xMidYMid meet">
<metadata>
Created by potrace 1.11, written by Peter Selinger 2001-2013
</metadata>
<g transform="translate(0.000000,1041.000000) scale(0.100000,-0.100000)"
fill="#000000" stroke="none">
<path d="M3947 8832 l-1237 -1237 0 -1190 0 -1190 600 -600 599 -600 -589
-590 c-452 -454 -586 -593 -577 -602 433 -439 2490 -2488 2497 -2488 6 0 567
556 1246 1234 l1234 1235 0 1210 0 1211 -595 595 -595 595 580 580 581 579
-1248 1248 c-686 686 -1250 1248 -1253 1248 -3 0 -562 -557 -1243 -1238z"/>
</g>
</svg>
