{
  "asset": {
    "version": "2.0",
    "generator": "THREE.GLTFExporter"
  },
  "scenes": [
    {
      "nodes": [
        2
      ],
      "name": "AuxScene"
    }
  ],
  "scene": 0,
  "nodes": [
    {
      "matrix": [
        -0.11784910365369237,
        0.34037960550260865,
        -0.932873685407574,
        0,
        -0.042660787807513,
        -0.9402881069958761,
        -0.3376956218634673,
        0,
        -0.9921147342679997,
        -7.494005416219807e-16,
        0.12533297271004318,
        0,
        3.4504454754590173,
        -8.871483788087465,
        24.79729465602909,
        1
      ],
      "name": "CINEMA_4D_Editor",
      "camera": 0
    },
    {
      "name": "Cube",
      "mesh": 0
    },
    {
      "children": [
        0,
        1
      ]
    }
  ],
  "cameras": [
    {
      "type": "perspective",
      "perspective": {
        "aspectRatio": 1.3333333333333333,
        "yfov": 0.5244106856856026,
        "zfar": 10,
        "znear": 0.000001
      },
      "name": "PerspectiveCamera"
    }
  ],
  "bufferViews": [
    {
      "buffer": 0,
      "byteOffset": 0,
      "byteLength": 17712,
      "target": 34962,
      "byteStride": 12
    },
    {
      "buffer": 0,
      "byteOffset": 17712,
      "byteLength": 17712,
      "target": 34962,
      "byteStride": 12
    },
    {
      "buffer": 0,
      "byteOffset": 35424,
      "byteLength": 11808,
      "target": 34962,
      "byteStride": 8
    },
    {
      "buffer": 0,
      "byteOffset": 47232,
      "byteLength": 2952,
      "target": 34963
    }
  ],
  "buffers": [
    {
      "byteLength": 50184,
      "uri": "data:application/octet-stream;base64,"
    }
  ],
  "accessors": [
    {
      "bufferView": 0,
      "componentType": 5126,
      "count": 1476,
      "max": [
        5,
        7.5,
        0.25
      ],
      "min": [
        -5,
        -7.5,
        -0.25
      ],
      "type": "VEC3"
    },
    {
      "bufferView": 1,
      "componentType": 5126,
      "count": 1476,
      "max": [
        1,
        0.9930620789527893,
        0.9938620924949646
      ],
      "min": [
        -0.9847171306610107,
        -0.9930620789527893,
        -0.9938620924949646
      ],
      "type": "VEC3"
    },
    {
      "bufferView": 2,
      "componentType": 5126,
      "count": 1476,
      "max": [
        0.9924494624137878,
        0.9896097779273987
      ],
      "min": [
        0.007550565991550684,
        0.010390281677246094
      ],
      "type": "VEC2"
    },
    {
      "bufferView": 3,
      "componentType": 5123,
      "count": 1476,
      "max": [
        1475
      ],
      "min": [
        0
      ],
      "type": "SCALAR"
    }
  ],
  "materials": [
    {
      "pbrMetallicRoughness": {
        "baseColorFactor": [
          0.8,
          0.8,
          0.8,
          1
        ],
        "metallicFactor": 0.5,
        "roughnessFactor": 0.5,
        "baseColorTexture": {
          "index": 0
        }
      },
      "name": "Mat"
    }
  ],
  "textures": [
    {
      "sampler": 0,
      "source": 0
    }
  ],
  "samplers": [
    {
      "magFilter": 9729,
      "minFilter": 9987
    }
  ],
  "images": [
    {
      "mimeType": "image/png",
      "uri": "data:image/png;base64,"
    }
  ],
  "meshes": [
    {
      "primitives": [
        {
          "mode": 4,
          "attributes": {
            "POSITION": 0,
            "NORMAL": 1,
            "TEXCOORD_0": 2
          },
          "indices": 3,
          "material": 0
        }
      ]
    }
  ]
}