{
  "accessors": [
    {
      "bufferView": 0,
      "byteOffset": 0,
      "componentType": 5126,
      "count": 48,
      "max": [
        3.300397727273785,
        3.0218978102189706,
        3.2999999999978358
      ],
      "min": [
        -3.299999999998915,
        -2.9781021897810085,
        -3.300000000002165
      ],
      "type": "VEC3"
    },
    {
      "bufferView": 0,
      "byteOffset": 576,
      "componentType": 5126,
      "count": 48,
      "max": [
        1,
        1,
        1
      ],
      "min": [
        -1,
        -1,
        -1
      ],
      "type": "VEC3"
    },
    {
      "bufferView": 0,
      "byteOffset": 1152,
      "componentType": 5126,
      "count": 48,
      "max": [
        0.6959540843963623,
        1.7038129568099976
      ],
      "min": [
        0.00789528526365757,
        1.0078393686562777
      ],
      "type": "VEC2"
    },
    {
      "bufferView": 2,
      "byteOffset": 0,
      "componentType": 5123,
      "count": 84,
      "max": [
        47
      ],
      "min": [
        0
      ],
      "type": "SCALAR"
    },
    {
      "bufferView": 0,
      "byteOffset": 1536,
      "componentType": 5126,
      "count": 48,
      "max": [
        3.09999999999353,
        3.39999999999997,
        3.1
      ],
      "min": [
        -3.1000000000064265,
        -3.3999999999999693,
        -3.1
      ],
      "type": "VEC3"
    },
    {
      "bufferView": 0,
      "byteOffset": 2112,
      "componentType": 5126,
      "count": 48,
      "max": [
        1,
        1,
        1
      ],
      "min": [
        -1,
        -1,
        -1
      ],
      "type": "VEC3"
    },
    {
      "bufferView": 0,
      "byteOffset": 2688,
      "componentType": 5126,
      "count": 48,
      "max": [
        0.6821832060813904,
        1.6901551485061646
      ],
      "min": [
        0.00789528526365757,
        1.0078393686562777
      ],
      "type": "VEC2"
    },
    {
      "bufferView": 2,
      "byteOffset": 168,
      "componentType": 5123,
      "count": 84,
      "max": [
        47
      ],
      "min": [
        0
      ],
      "type": "SCALAR"
    },
    {
      "bufferView": 0,
      "byteOffset": 3072,
      "componentType": 5126,
      "count": 39695,
      "max": [
        2.8999999999866906,
        9.970667791054744,
        2.8999999999959094
      ],
      "min": [
        -2.900000000013296,
        3.3315589495900433,
        -2.9000000000040878
      ],
      "type": "VEC3"
    },
    {
      "bufferView": 0,
      "byteOffset": 479412,
      "componentType": 5126,
      "count": 39695,
      "max": [
        1,
        1,
        1
      ],
      "min": [
        -1,
        -1,
        -1
      ],
      "type": "VEC3"
    },
    {
      "bufferView": 0,
      "byteOffset": 955752,
      "componentType": 5126,
      "count": 39695,
      "max": [
        0.992104709148407,
        1.9921605587005615
      ],
      "min": [
        0.00789528526365757,
        1.0078393686562777
      ],
      "type": "VEC2"
    },
    {
      "bufferView": 2,
      "byteOffset": 336,
      "componentType": 5123,
      "count": 199632,
      "max": [
        39694
      ],
      "min": [
        0
      ],
      "type": "SCALAR"
    },
    {
      "bufferView": 1,
      "byteOffset": 0,
      "componentType": 5126,
      "count": 22,
      "max": [
        3.95
      ],
      "min": [
        0
      ],
      "type": "SCALAR"
    },
    {
      "bufferView": 1,
      "byteOffset": 88,
      "componentType": 5126,
      "count": 22,
      "max": [
        0,
        14.999999999999998,
        0
      ],
      "min": [
        0,
        4.497457981109617,
        0
      ],
      "type": "VEC3"
    },
    {
      "bufferView": 1,
      "byteOffset": 352,
      "componentType": 5126,
      "count": 22,
      "max": [
        8.294615419566483e-18,
        6.344409607059238e-26,
        1,
        -6.066793891089538e-17
      ],
      "min": [
        -2.4651903292041456e-32,
        -0.1354613497596457,
        0.9907826314188672,
        -6.123233995736766e-17
      ],
      "type": "VEC4"
    },
    {
      "bufferView": 1,
      "byteOffset": 704,
      "componentType": 5126,
      "count": 22,
      "max": [
        0,
        3.9999999999999982,
        0
      ],
      "min": [
        0,
        -4.999999999999999,
        0
      ],
      "type": "VEC3"
    },
    {
      "bufferView": 1,
      "byteOffset": 968,
      "componentType": 5126,
      "count": 34,
      "max": [
        3.95
      ],
      "min": [
        0
      ],
      "type": "SCALAR"
    },
    {
      "bufferView": 1,
      "byteOffset": 1104,
      "componentType": 5126,
      "count": 34,
      "max": [
        0.12458283534148168,
        0.9951586760235497,
        0.03452953246959901,
        1
      ],
      "min": [
        -0.020484550735329194,
        -0.8070738843723633,
        -0.07771636557428216,
        -0.4744679031843927
      ],
      "type": "VEC4"
    }
  ],
  "animations": [
    {
      "channels": [
        {
          "sampler": 0,
          "target": {
            "node": 3,
            "path": "rotation"
          }
        },
        {
          "sampler": 1,
          "target": {
            "node": 3,
            "path": "translation"
          }
        },
        {
          "sampler": 2,
          "target": {
            "node": 4,
            "path": "translation"
          }
        },
        {
          "sampler": 3,
          "target": {
            "node": 5,
            "path": "rotation"
          }
        }
      ],
      "name": "Main",
      "samplers": [
        {
          "input": 12,
          "interpolation": "LINEAR",
          "output": 14
        },
        {
          "input": 12,
          "interpolation": "LINEAR",
          "output": 13
        },
        {
          "input": 12,
          "interpolation": "LINEAR",
          "output": 15
        },
        {
          "input": 16,
          "interpolation": "LINEAR",
          "output": 17
        }
      ]
    }
  ],
  "asset": {
    "generator": "ClayGL - fbx2gltf",
    "version": "2.0"
  },
  "bufferViews": [
    {
      "buffer": 0,
      "byteLength": 1273312,
      "byteOffset": 0,
      "target": 34962
    },
    {
      "buffer": 0,
      "byteLength": 1648,
      "byteOffset": 1273312,
      "target": 34962
    },
    {
      "buffer": 0,
      "byteLength": 399600,
      "byteOffset": 1274960,
      "target": 34963
    }
  ],
  "buffers": [
    {
      "byteLength": 1674560,
      "uri": "oppulence anim.bin"
    }
  ],
  "images": [
    {
      "uri": "Oppulence_bocSurface_Color.png"
    }
  ],
  "materials": [
    {
      "name": "jar",
      "emissiveFactor": [
        0,
        0,
        0
      ],
      "alphaMode": "OPAQUE",
      "pbrMetallicRoughness": {
        "baseColorFactor": [
          1,
          1,
          1,
          1
        ],
        "metallicFactor": 0,
        "roughnessFactor": 1,
        "baseColorTexture": {
          "index": 0,
          "texCoord": 0
        }
      }
    }
  ],
  "meshes": [
    {
      "name": "top_lid",
      "primitives": [
        {
          "attributes": {
            "NORMAL": 1,
            "POSITION": 0,
            "TEXCOORD_0": 2
          },
          "indices": 3,
          "material": 0
        }
      ]
    },
    {
      "name": "bottom_lid",
      "primitives": [
        {
          "attributes": {
            "NORMAL": 5,
            "POSITION": 4,
            "TEXCOORD_0": 6
          },
          "indices": 7,
          "material": 0
        }
      ]
    },
    {
      "name": "jar",
      "primitives": [
        {
          "attributes": {
            "NORMAL": 9,
            "POSITION": 8,
            "TEXCOORD_0": 10
          },
          "indices": 11,
          "material": 0
        }
      ]
    }
  ],
  "nodes": [
    {
      "children": [
        1
      ],
      "matrix": [
        0.9999999999999999,
        0,
        2.4492935982947054e-16,
        0,
        0,
        0.9999999999999999,
        0,
        0,
        -2.449293598294706e-16,
        0,
        1,
        0,
        -4.332069396972656,
        11.435815811157227,
        -1.2289241552352905,
        1
      ],
      "name": "Oppulence_boc"
    },
    {
      "children": [
        2
      ],
      "matrix": [
        0.9999999999999996,
        0,
        9.860761315262648e-32,
        0,
        0,
        0.9999999999999996,
        0,
        0,
        -4.930380657631324e-32,
        0,
        1,
        0,
        4.75175454539567e-13,
        0,
        13.058107376098633,
        1
      ],
      "name": "OPPULENCE_GELATO_BOX_1"
    },
    {
      "children": [
        3,
        4,
        5
      ],
      "matrix": [
        0.9999999999999999,
        0,
        4.930380657631324e-32,
        0,
        0,
        0.9999999999999999,
        0,
        0,
        -4.930380657631324e-32,
        0,
        1,
        0,
        -1.1826847057250234e-8,
        0.8630620241165161,
        0.03248044103384018,
        1
      ],
      "name": "Lid"
    },
    {
      "matrix": [
        -0.9999999999999998,
        -1.224646799147353e-16,
        -4.930380657631324e-32,
        0,
        1.224646799147353e-16,
        -0.9999999999999998,
        -5.473822126268817e-48,
        0,
        0,
        -6.037974890946227e-48,
        1,
        0,
        0,
        4.497457981109617,
        0,
        1
      ],
      "mesh": 0,
      "name": "top_lid"
    },
    {
      "matrix": [
        0.9999999999999998,
        0,
        4.930380657631324e-32,
        0,
        0,
        0.9999999999999998,
        0,
        0,
        0,
        0,
        1,
        0,
        0,
        3.9999999999999982,
        0,
        1
      ],
      "mesh": 1,
      "name": "bottom_lid"
    },
    {
      "matrix": [
        0.9999999999999999,
        0,
        4.930380657631324e-32,
        0,
        0,
        0.9999999999999997,
        0,
        0,
        0,
        0,
        1,
        0,
        1.1822186785082067e-8,
        -2.6320343017578125,
        -0.03248044103384018,
        1
      ],
      "mesh": 2,
      "name": "jar"
    }
  ],
  "samplers": [
    {
      "minFilter": 9987,
      "magFilter": 9729,
      "wrapS": 10497,
      "wrapT": 10497
    }
  ],
  "scene": 0,
  "scenes": [
    {
      "nodes": [
        0
      ]
    }
  ],
  "textures": [
    {
      "sampler": 0,
      "source": 0
    }
  ],
  "extras": {
    "clayViewerConfig": {
      "preZ": true,
      "materials": [
        {
          "name": "jar",
          "transparent": false,
          "color": "#ffffff",
          "emission": "#000000",
          "alpha": 1,
          "alphaCutoff": 0,
          "emissionIntensity": 1,
          "uvRepeat": [
            1,
            1
          ],
          "parallaxOcclusionScale": 0.02,
          "diffuseMap": "Oppulence_bocSurface_Color.png",
          "normalMap": "",
          "parallaxOcclusionMap": "",
          "emissiveMap": "",
          "metalness": 0,
          "roughness": 1,
          "metalnessMap": "",
          "roughnessMap": "",
          "type": "pbrMetallicRoughness",
          "targetMeshes": [
            "top_lid",
            "bottom_lid",
            "jar"
          ]
        }
      ],
      "takes": [],
      "textureFlipY": false,
      "zUpToYUp": false,
      "shadow": true,
      "environment": "auto",
      "viewControl": {
        "center": [
          0,
          0,
          0
        ],
        "alpha": -0.3323802890521847,
        "beta": 58.37749427665548,
        "distance": 68.71468810143104
      },
      "ground": {
        "show": true,
        "grid": false
      },
      "mainLight": {
        "shadow": true,
        "shadowQuality": "medium",
        "intensity": 0.8,
        "color": "#fff",
        "alpha": 51.769911504424776,
        "beta": 100.35398230088495,
        "$padAngle": [
          0.5575221238938053,
          0.5752212389380531
        ]
      },
      "secondaryLight": {
        "shadow": true,
        "shadowQuality": "medium",
        "intensity": 0,
        "color": "#fff",
        "alpha": 60,
        "beta": -50,
        "$padAngle": [
          -0.2777777777777778,
          0.6666666666666666
        ]
      },
      "tertiaryLight": {
        "shadow": true,
        "shadowQuality": "medium",
        "intensity": 0,
        "color": "#fff",
        "alpha": 89,
        "beta": 0,
        "$padAngle": [
          0,
          0.9888888888888889
        ]
      },
      "ambientLight": {
        "intensity": 0,
        "color": "#fff"
      },
      "ambientCubemapLight": {
        "texture": "./asset/texture/Grand_Canyon_C.hdr",
        "$texture": "Grand_Canyon_C",
        "$textureOptions": [
          "pisa",
          "Barce_Rooftop_C",
          "Factory_Catwalk",
          "Grand_Canyon_C",
          "Ice_Lake",
          "Hall",
          "Old_Industrial_Hall"
        ],
        "exposure": 3,
        "diffuseIntensity": 0.3,
        "specularIntensity": 0.5
      },
      "postEffect": {
        "enable": true,
        "bloom": {
          "enable": true,
          "intensity": 0.1
        },
        "depthOfField": {
          "enable": false,
          "focalDistance": 4,
          "focalRange": 1,
          "blurRadius": 5,
          "fstop": 10,
          "quality": "medium",
          "$qualityOptions": [
            "low",
            "medium",
            "high",
            "ultra"
          ]
        },
        "screenSpaceAmbientOcclusion": {
          "enable": false,
          "radius": 1.5,
          "quality": "medium",
          "intensity": 1,
          "$qualityOptions": [
            "low",
            "medium",
            "high",
            "ultra"
          ]
        },
        "screenSpaceReflection": {
          "enable": false,
          "physical": false,
          "quality": "medium",
          "maxRoughness": 0.8,
          "$qualityOptions": [
            "low",
            "medium",
            "high",
            "ultra"
          ]
        },
        "colorCorrection": {
          "enable": true,
          "exposure": 0,
          "brightness": 0,
          "contrast": 1,
          "saturation": 1,
          "lookupTexture": ""
        },
        "FXAA": {
          "enable": false
        }
      }
    }
  },
  "extensionsUsed": [
    "KHR_materials_pbrSpecularGlossiness"
  ]
}